<svg width="841" height="256" viewBox="0 0 841 256" fill="none" xmlns="http://www.w3.org/2000/svg">
<path fill-rule="evenodd" clip-rule="evenodd" d="M316.6 87.8C325.3 80.9 336.4 77 348.1 77C376.6 77 400 99.5 400 128C400 156.5 376.9 179.3 348.7 179.3C336.7 179.3 325.9 175.1 317.2 168.5V213.8C317.2 219.2 312.7 223.7 307.3 223.7H307C301.6 223.7 297.1 219.2 297.1 213.8V131V128.3V125.6V86.9C297.1 81.5501 301.517 77.0835 306.85 77.0012C312.183 77.0835 316.6 81.5501 316.6 86.9V87.8ZM306.85 77.0012C306.9 77.0004 306.95 77 307 77H306.7C306.75 77 306.8 77.0004 306.85 77.0012ZM316.9 128.3C316.9 145.4 330.7 159.5 348.1 159.5C365.5 159.5 379.3 145.4 379.3 128.3C379.3 111.2 365.2 97.1 348.1 97.1C331 97.1 316.9 111.2 316.9 128.3Z" fill="white"/>
<path fill-rule="evenodd" clip-rule="evenodd" d="M490.3 86.9C490.3 81.5 494.8 77 500.2 77C505.6 77 510.1 81.5 510.1 86.9V128.3V169.7C510.1 175.1 505.6 179.6 500.2 179.6C494.8 179.6 490.3 175.1 490.3 169.7V168.8C481.6 175.7 470.8 179.6 458.8 179.6C430.3 179.6 407.5 156.8 407.5 128.3C407.5 99.8 430.6 77 458.8 77C470.8 77 481.6 80.9 490.3 87.8V86.9ZM427.6 128.3C427.6 145.4 441.4 159.5 458.8 159.5C476.2 159.5 490 145.4 490 128.3C490 111.2 475.9 97.1 458.8 97.1C441.7 97.1 427.6 111.2 427.6 128.3Z" fill="white"/>
<path d="M654.1 85.1C654.1 79.7 649.6 75.2 644.2 75.2H622.6V40.1C622.6 34.7 618.1 30.2 612.7 30.2C607.3 30.2 602.8 34.7 602.8 40.1V84.8V169.4C602.8 174.8 607.3 179.3 612.7 179.3C618.1 179.3 622.6 174.8 622.6 169.4V95H644.2C649.6 95 654.1 90.5 654.1 85.1Z" fill="white"/>
<path d="M581.8 77C568.9 77 558.7 82.7 550.9 89.6V86.9C550.9 81.5 546.4 77 541 77C535.6 77 531.1 81.5 531.1 86.9V122V124.4V169.7C531.1 175.1 535.6 179.6 541 179.6C546.4 179.6 550.9 175.1 550.9 169.7V125C553 119.6 563.2 96.8 581.8 96.8C587.2 96.8 591.7 92.3 591.7 86.9C591.7 81.5 587.2 77 581.8 77Z" fill="white"/>
<path fill-rule="evenodd" clip-rule="evenodd" d="M787 77C769 77 753.1 86.3 743.8 100.7C734.8 86.6 718.9 77 700.6 77C672.4 77 649.3 99.8 649.3 128.3C649.3 156.8 672.1 179.6 700.6 179.6C718.6 179.6 734.5 170.3 743.8 155.9C752.8 170 768.7 179.6 787 179.6C815.2 179.6 838.3 156.8 838.3 128.3C838.3 99.8 815.5 77 787 77ZM700.9 159.5C683.5 159.5 669.7 145.4 669.7 128.3C669.7 111.2 683.8 97.1 700.9 97.1C718 97.1 732.1 111.2 732.1 128.3C732.1 145.4 718.3 159.5 700.9 159.5ZM755.8 128.3C755.8 145.4 769.6 159.5 787 159.5C804.4 159.5 818.2 145.4 818.2 128.3C818.2 111.2 804.1 97.1 787 97.1C769.9 97.1 755.8 111.2 755.8 128.3Z" fill="white"/>
<path d="M700.9 112.7C699.1 112.7 697.6 113 695.8 113.6C696.4 114.8 697 116 697 117.5C697 121.4 694 124.4 690.1 124.4C688.6 124.4 687.4 124.1 686.2 123.2C685.6 124.7 685.3 126.5 685.3 128.3C685.3 136.7 692.2 143.6 700.6 143.6C709 143.6 715.9 136.7 715.9 128.3C716.2 119.6 709.3 112.7 700.9 112.7Z" fill="white"/>
<path d="M787 112.7C785.2 112.7 783.7 113 781.9 113.6C782.5 114.8 783.1 116 783.1 117.5C783.1 121.4 780.1 124.4 776.2 124.4C774.7 124.4 773.5 124.1 772.3 123.2C771.7 124.7 771.4 126.5 771.4 128.3C771.4 136.7 778.3 143.6 786.7 143.6C795.1 143.6 802 136.7 802 128.3C802.6 119.6 795.7 112.7 787 112.7Z" fill="white"/>
<path d="M98.8062 187.612C150.614 187.612 192.612 145.614 192.612 93.8062C192.612 41.9985 150.614 0 98.8062 0C46.9985 0 5 41.9985 5 93.8062C5 145.614 46.9985 187.612 98.8062 187.612Z" fill="#0085F2"/>
<path d="M98.8062 255.774C150.614 255.774 192.612 213.776 192.612 161.968C192.612 110.16 150.614 68.1616 98.8062 68.1616C46.9985 68.1616 5 110.16 5 161.968C5 213.776 46.9985 255.774 98.8062 255.774Z" fill="#00EBA9"/>
<path d="M157.836 221.695C209.644 221.695 251.642 179.696 251.642 127.889C251.642 76.0808 209.644 34.0824 157.836 34.0824C106.028 34.0824 64.0297 76.0808 64.0297 127.889C64.0297 179.696 106.028 221.695 157.836 221.695Z" fill="#FF9600"/>
<path d="M84.637 186.549C57.1603 152.268 57.1603 103.509 84.637 69.2283C51.0896 74.3228 23.3753 97.1622 11.4032 127.889C23.3785 158.615 51.08 181.467 84.637 186.549Z" fill="#15A2FF"/>
<path d="M84.637 69.2283C89.3267 68.5187 94.0631 68.1632 98.8062 68.1648C138.607 68.1648 172.588 92.9337 186.225 127.889C190.457 117.029 192.623 105.474 192.612 93.8189C192.645 72.4818 185.373 51.7763 172.005 35.1459C138.891 30.117 105.605 43.0974 84.637 69.2155L84.637 69.2283Z" fill="#AD46FF"/>
<path d="M186.225 127.889C172.588 162.847 138.591 187.612 98.8062 187.612C94.0631 187.614 89.3267 187.258 84.637 186.549C105.605 212.667 138.891 225.647 172.005 220.618C185.367 203.995 192.639 183.299 192.612 161.971C192.624 150.312 190.458 138.752 186.225 127.889Z" fill="#FFBA01"/>
<path d="M98.8062 68.1648C94.0631 68.1632 89.3267 68.5187 84.637 69.2283C57.1603 103.509 57.1603 152.268 84.637 186.549C89.3267 187.258 94.0631 187.614 98.8062 187.612C138.607 187.612 172.588 162.847 186.225 127.889C172.588 92.9338 138.591 68.1648 98.8062 68.1648Z" fill="#8A78FF"/>
<path fill-rule="evenodd" clip-rule="evenodd" d="M64.0265 127.891C64.0253 97.8046 88.4136 73.4139 118.5 73.4121C132.948 73.4113 146.805 79.1504 157.022 89.3668C167.239 99.5832 172.979 113.44 172.979 127.889C172.979 157.975 148.59 182.364 118.504 182.365C88.4179 182.366 64.0276 157.977 64.0265 127.891ZM90.0245 127.917C90.0262 143.643 102.774 156.391 118.5 156.392L118.516 156.408C134.254 156.408 147.013 143.65 147.013 127.911C147.013 112.172 134.254 99.4133 118.516 99.4133C115.394 99.4153 112.296 99.9417 109.349 100.97C110.704 103.045 111.424 105.471 111.418 107.95C111.42 115.057 105.665 120.822 98.5578 120.833C96.066 120.833 93.6294 120.099 91.5528 118.722C90.5471 121.683 90.0309 124.789 90.0245 127.917Z" fill="white"/>
</svg>
