<svg width="839" height="256" viewBox="0 0 839 256" fill="none" xmlns="http://www.w3.org/2000/svg">
<path d="M701.2 112.4C699.4 112.4 697.9 112.7 696.1 113.3C696.7 114.5 697.3 115.7 697.3 117.2C697.3 121.1 694.3 124.1 690.4 124.1C688.9 124.1 687.7 123.8 686.5 122.9C685.9 124.4 685.6 126.2 685.6 128C685.6 136.4 692.5 143.3 700.9 143.3C709.3 143.3 716.2 136.4 716.2 128C716.5 119.3 709.6 112.4 701.2 112.4Z" fill="#0C1628"/>
<path d="M787.3 112.4C785.5 112.4 784 112.7 782.2 113.3C782.8 114.5 783.4 115.7 783.4 117.2C783.4 121.1 780.4 124.1 776.5 124.1C775 124.1 773.8 123.8 772.6 122.9C772 124.4 771.7 126.2 771.7 128C771.7 136.4 778.6 143.3 787 143.3C795.4 143.3 802.3 136.4 802.3 128C802.9 119.3 796 112.4 787.3 112.4Z" fill="#0C1628"/>
<path fill-rule="evenodd" clip-rule="evenodd" d="M316.9 87.5C325.6 80.6 336.7 76.7 348.4 76.7C376.6 76.7 399.7 99.5 400 127.7C400 156.2 376.9 179 348.7 179C336.7 179 325.9 174.8 317.2 168.2V213.2C317.2 218.6 312.7 223.1 307.3 223.1H307C301.6 223.1 297.1 218.6 297.1 213.2V130.4V127.7V125V86.6C297.1 81.2 301.6 76.7 307 76.7C312.4 76.7 316.9 81.2 316.9 86.6V87.5ZM317.2 128C317.2 145.1 331 159.2 348.4 159.2C365.8 159.2 379.9 145.1 379.6 128C379.6 110.9 365.8 96.8 348.4 96.8C331.3 96.8 317.2 110.6 317.2 128Z" fill="#1C345C"/>
<path fill-rule="evenodd" clip-rule="evenodd" d="M490.6 86.6C490.6 81.2 495.1 76.7 500.5 76.7C505.9 76.7 510.4 81.2 510.4 86.6V128V169.4C510.4 174.8 505.9 179.3 500.5 179.3C495.1 179.3 490.6 174.8 490.6 169.4V168.5C481.9 175.4 471.1 179.3 459.1 179.3C430.6 179.3 407.8 156.2 407.8 128C407.8 99.5 430.9 76.7 459.1 76.7C471.1 76.7 481.9 80.6 490.6 87.5V86.6ZM427.9 128C427.9 145.1 441.7 159.2 459.1 159.2C476.5 159.2 490.3 145.1 490.3 128C490.3 110.9 476.2 96.8 459.1 96.8C442 96.8 427.9 110.6 427.9 128Z" fill="#1C345C"/>
<path d="M654.4 84.8C654.4 79.4 649.9 74.9 644.5 74.9H622.9V39.8C622.9 34.4 618.4 29.9 613 29.9C607.6 29.9 603.1 34.4 603.1 39.8V84.5V169.1C603.1 174.5 607.6 179 613 179C618.4 179 622.9 174.5 622.9 169.1V94.7H644.5C649.9 94.7 654.4 90.2 654.4 84.8Z" fill="#1C345C"/>
<path d="M582.1 76.7C569.2 76.7 559 82.4 551.2 89.3V86.6C551.2 81.2 546.7 76.7 541.3 76.7C535.9 76.7 531.4 81.2 531.4 86.6V121.7V124.1V169.4C531.4 174.8 535.9 179.3 541.3 179.3C546.7 179.3 551.2 174.8 551.2 169.4V124.7C553.3 119.3 563.5 96.5 582.1 96.5C587.5 96.5 592 92 592 86.6C592 81.2 587.5 76.7 582.1 76.7Z" fill="#1C345C"/>
<path fill-rule="evenodd" clip-rule="evenodd" d="M787.3 76.7C769.3 76.7 753.4 86 744.1 100.4C735.1 86.3 719.2 76.7 700.9 76.7C672.7 76.7 649.6 99.5 649.6 128C649.6 156.5 673 179 701.2 179C719.2 179 735.1 169.7 744.4 155.3C753.4 169.4 769.3 179 787.6 179C815.8 179 838.9 156.2 838.9 127.7C838.9 99.2 815.5 76.7 787.3 76.7ZM701.2 159.2C683.8 159.2 670 145.1 670 128C670 110.6 684.1 96.8 701.2 96.8C718.3 96.8 732.4 110.9 732.4 128C732.4 145.1 718.3 159.2 701.2 159.2ZM756.1 128C756.1 145.1 769.9 159.2 787.3 159.2C804.7 159.2 818.8 145.1 818.5 128C818.5 110.9 804.4 96.8 787.3 96.8C770.2 96.8 756.1 110.6 756.1 128Z" fill="#1C345C"/>
<path d="M297.4 125V130.7C298.3 146 305.8 159.5 317.2 168.2V87.2C305.8 96.2 298.3 109.7 297.4 125Z" fill="#0C1628"/>
<path d="M490.6 87.5V168.2C502.6 158.9 510.4 144.2 510.4 127.7C510.4 111.2 502.6 96.8 490.6 87.5Z" fill="#0C1628"/>
<path d="M613 74.9C607.6 74.9 603.1 79.4 603.1 84.8C603.1 90.2 607.6 94.7 613 94.7H622.9V74.9H613V74.9Z" fill="#0C1628"/>
<path d="M551.2 89.3V124.7C550.9 125.3 550.9 125.9 550.9 125.9C549.4 130.1 545.5 132.8 541.6 132.8C540.4 132.8 539.5 132.5 538.6 132.2C534.7 131 532.3 127.7 532 123.8V121.4C532 120.8 532.3 120.2 532.3 119.6C532.3 118.4 538 101.6 551.2 89.3Z" fill="#0C1628"/>
<path d="M744.4 100.4C739.3 108.5 736.3 117.8 736.3 128C736.3 138.2 739.3 147.5 744.4 155.6C749.5 147.5 752.5 138.2 752.5 128C752.5 117.8 749.5 108.2 744.4 100.4Z" fill="#0C1628"/>
<path d="M98.8062 187.612C150.614 187.612 192.612 145.614 192.612 93.8062C192.612 41.9985 150.614 0 98.8062 0C46.9985 0 5 41.9985 5 93.8062C5 145.614 46.9985 187.612 98.8062 187.612Z" fill="#0085F2"/>
<path d="M98.8062 255.774C150.614 255.774 192.612 213.775 192.612 161.968C192.612 110.16 150.614 68.1616 98.8062 68.1616C46.9985 68.1616 5 110.16 5 161.968C5 213.775 46.9985 255.774 98.8062 255.774Z" fill="#00EBA9"/>
<path d="M157.836 221.695C209.644 221.695 251.642 179.696 251.642 127.889C251.642 76.0808 209.644 34.0824 157.836 34.0824C106.028 34.0824 64.0297 76.0808 64.0297 127.889C64.0297 179.696 106.028 221.695 157.836 221.695Z" fill="#FF9600"/>
<path d="M84.637 186.549C57.1603 152.268 57.1603 103.509 84.637 69.2283C51.0896 74.3228 23.3753 97.1622 11.4032 127.889C23.3785 158.615 51.08 181.467 84.637 186.549Z" fill="#15A2FF"/>
<path d="M84.637 69.2283C89.3267 68.5187 94.0631 68.1632 98.8062 68.1648C138.607 68.1648 172.588 92.9337 186.225 127.889C190.457 117.029 192.623 105.474 192.612 93.8189C192.645 72.4818 185.373 51.7763 172.005 35.1459C138.891 30.117 105.605 43.0974 84.637 69.2155L84.637 69.2283Z" fill="#AD46FF"/>
<path d="M186.225 127.889C172.588 162.847 138.591 187.612 98.8062 187.612C94.0631 187.614 89.3267 187.258 84.637 186.549C105.605 212.667 138.891 225.647 172.005 220.618C185.367 203.995 192.639 183.299 192.612 161.971C192.624 150.312 190.458 138.752 186.225 127.889Z" fill="#FFBA01"/>
<path d="M98.8062 68.1648C94.0631 68.1632 89.3267 68.5187 84.637 69.2283C57.1603 103.509 57.1603 152.268 84.637 186.549C89.3267 187.258 94.0631 187.614 98.8062 187.612C138.607 187.612 172.588 162.847 186.225 127.889C172.588 92.9337 138.591 68.1648 98.8062 68.1648Z" fill="#8A78FF"/>
<path fill-rule="evenodd" clip-rule="evenodd" d="M64.0265 127.891C64.0253 97.8046 88.4136 73.4139 118.5 73.4121C132.948 73.4113 146.805 79.1504 157.022 89.3668C167.239 99.5832 172.979 113.44 172.979 127.889C172.979 157.975 148.59 182.364 118.504 182.365C88.4179 182.366 64.0276 157.977 64.0265 127.891ZM90.0245 127.917C90.0262 143.643 102.774 156.391 118.5 156.392L118.516 156.408C134.254 156.408 147.013 143.65 147.013 127.911C147.013 112.172 134.254 99.4133 118.516 99.4133C115.394 99.4154 112.296 99.9417 109.349 100.97C110.704 103.045 111.424 105.471 111.418 107.95C111.42 115.057 105.665 120.822 98.5578 120.833C96.066 120.833 93.6294 120.099 91.5528 118.722C90.5471 121.683 90.0309 124.789 90.0245 127.917Z" fill="white"/>
</svg>
